<svg xmlns="http://www.w3.org/2000/svg" width="480.227" height="542.588" viewBox="0 0 480.227 542.588">
  <g id="Group_80" data-name="Group 80" transform="translate(-1105.742 -325.593)">
    <path id="Path_121" data-name="Path 121" d="M362.1,202.022,188.379,375.745A96.087,96.087,0,0,1,52.5,239.853L226.21,66.13A96.09,96.09,0,1,1,362.1,202.022" transform="translate(1194.224 462.793)" fill="none" stroke="#fff" stroke-width="3"/>
    <path id="Path_122" data-name="Path 122" d="M337.722,164.035,164.035,337.722A96.089,96.089,0,0,1,28.143,201.834L201.83,28.143A96.09,96.09,0,1,1,337.722,164.035" transform="translate(1107.242 327.093)" fill="none" stroke="#fff" stroke-width="3"/>
    <path id="Path_123" data-name="Path 123" d="M148.282,63.427a86.862,86.862,0,1,1-122.842,0,86.864,86.864,0,0,1,122.842,0" transform="translate(1116.47 472.021)" fill="#8de85b"/>
    <path id="Path_124" data-name="Path 124" d="M210.625,63.427a86.862,86.862,0,1,1-122.842,0,86.864,86.864,0,0,1,122.842,0" transform="translate(1339.175 472.021)" fill="#825bff"/>
  </g>
</svg>
