<svg xmlns="http://www.w3.org/2000/svg" xmlns:xlink="http://www.w3.org/1999/xlink" width="80.663" height="71.512" viewBox="0 0 80.663 71.512">
  <defs>
    <clipPath id="clip-path">
      <rect id="Rectangle_105" data-name="Rectangle 105" width="80.663" height="71.512" fill="#fff"/>
    </clipPath>
  </defs>
  <g id="Group_88" data-name="Group 88" transform="translate(0)">
    <g id="Group_87" data-name="Group 87" transform="translate(0 0)" clip-path="url(#clip-path)">
      <path id="Path_134" data-name="Path 134" d="M37.811,70.785a1.43,1.43,0,0,1-1.53-1.513V58.138a1.53,1.53,0,0,1,3.059,0V69.272a1.43,1.43,0,0,1-1.53,1.513" transform="translate(-8.572 -13.379)" fill="#fff"/>
      <path id="Path_135" data-name="Path 135" d="M52.336,71.083a1.43,1.43,0,0,1-1.53-1.513V53.991a1.53,1.53,0,0,1,3.059,0V69.57a1.43,1.43,0,0,1-1.53,1.513" transform="translate(-12.004 -12.399)" fill="#fff"/>
      <path id="Path_136" data-name="Path 136" d="M66.859,70.785a1.43,1.43,0,0,1-1.53-1.513V58.138a1.53,1.53,0,0,1,3.059,0V69.272a1.43,1.43,0,0,1-1.53,1.513" transform="translate(-15.435 -13.379)" fill="#fff"/>
      <path id="Path_137" data-name="Path 137" d="M19.624,71.512c-6.605,0-8.584-4.371-9.521-10.934L5.007,24.9H1.5A1.424,1.424,0,0,1,0,23.375,1.639,1.639,0,0,1,.377,22.3,1.419,1.419,0,0,1,1.5,21.843H24.432L35.584.786A1.29,1.29,0,0,1,36.754,0,1.758,1.758,0,0,1,38.2.845a1.488,1.488,0,0,1,0,1.538l-10.3,19.46H52.769l-10.3-19.46a1.486,1.486,0,0,1,0-1.538A1.757,1.757,0,0,1,43.907,0a1.306,1.306,0,0,1,1.171.786l11.15,21.057H79.163a1.53,1.53,0,0,1,0,3.06H75.656l-5.23,36.609c-.975,6.822-3.958,10-9.388,10ZM13.129,60.493c.513,3.593,1.136,7.959,6.495,7.959H61.036c4.75,0,5.885-3.677,6.342-6.882L72.618,24.9H57.849L60.3,29.52h2.038a1.53,1.53,0,0,1,0,3.06H55.387a1.532,1.532,0,0,1-.178-3.05l1.537-.179L54.39,24.9H26.273l-2.355,4.447,1.537.179a1.532,1.532,0,0,1-.178,3.05H18.331a1.53,1.53,0,0,1,0-3.06h2.037L22.812,24.9H8.045Z" transform="translate(0 0)" fill="#fff"/>
    </g>
  </g>
</svg>
