<svg xmlns="http://www.w3.org/2000/svg" width="478.868" height="541.437" viewBox="0 0 478.868 541.437">
  <g id="Group_113" data-name="Group 113" transform="translate(-1020.132 -328.782)">
    <path id="Path_139" data-name="Path 139" d="M363.258,202.585,188.94,376.9A96.416,96.416,0,1,1,52.592,240.546L226.9,66.227A96.42,96.42,0,0,1,363.258,202.585" transform="translate(1107.501 465.075)" fill="#8de85b"/>
    <path id="Path_140" data-name="Path 140" d="M338.878,164.6,164.6,338.88A96.418,96.418,0,0,1,28.24,202.526L202.521,28.24A96.42,96.42,0,1,1,338.878,164.6" transform="translate(1020.132 328.782)" fill="#825bff"/>
    <path id="Path_141" data-name="Path 141" d="M164.6,66.227a96.42,96.42,0,1,1-136.357,0,96.422,96.422,0,0,1,136.357,0" transform="translate(1020.132 465.075)" fill="#8de85b"/>
    <path id="Path_142" data-name="Path 142" d="M226.94,66.227a96.42,96.42,0,1,1-136.357,0,96.422,96.422,0,0,1,136.357,0" transform="translate(1243.82 465.075)" fill="#825bff"/>
  </g>
</svg>
