<svg id="Group_47" data-name="Group 47" xmlns="http://www.w3.org/2000/svg" xmlns:xlink="http://www.w3.org/1999/xlink" width="218.5" height="31.022" viewBox="0 0 218.5 31.022">
  <defs>
    <clipPath id="clip-path">
      <rect id="Rectangle_43" data-name="Rectangle 43" width="218.5" height="31.022" fill="none"/>
    </clipPath>
  </defs>
  <g id="Group_46" data-name="Group 46" clip-path="url(#clip-path)">
    <path id="Path_101" data-name="Path 101" d="M43.767,47.418l-9.988,9.988a5.524,5.524,0,1,1-7.812-7.813L35.954,39.6a5.524,5.524,0,0,1,7.813,7.813" transform="translate(-17.948 -28.001)" fill="#8de85b"/>
    <path id="Path_102" data-name="Path 102" d="M19.416,9.431,9.431,19.416A5.524,5.524,0,0,1,1.618,11.6L11.6,1.618a5.524,5.524,0,1,1,7.813,7.813" transform="translate(0 0)" fill="#825bff"/>
    <path id="Path_103" data-name="Path 103" d="M9.431,39.6a5.524,5.524,0,1,1-7.813,0,5.525,5.525,0,0,1,7.813,0" transform="translate(0 -28.001)" fill="#8de85b"/>
    <path id="Path_104" data-name="Path 104" d="M71.774,39.6a5.524,5.524,0,1,1-7.813,0,5.525,5.525,0,0,1,7.813,0" transform="translate(-45.955 -28.001)" fill="#825bff"/>
    <path id="Path_105" data-name="Path 105" d="M129.853,27.4h1.25a1.912,1.912,0,0,0,1.586-.705,3.18,3.18,0,0,0,.561-2.019V7.307h3.109V24.872a5.256,5.256,0,0,1-1.282,3.8A4.841,4.841,0,0,1,131.423,30h-1.57ZM136.52,4.454h-3.462V.543h3.462Z" transform="translate(-95.719 -0.4)" fill="#fff"/>
    <path id="Path_106" data-name="Path 106" d="M182.867,42.428h-3.109V39.575a4.741,4.741,0,0,1-2.02,2.308,6.26,6.26,0,0,1-3.205.8,6.016,6.016,0,0,1-3.157-.818,5.576,5.576,0,0,1-2.116-2.276,7.266,7.266,0,0,1-.753-3.382V26.273h3.109V35.6a4.538,4.538,0,0,0,1.042,3.109A3.469,3.469,0,0,0,175.4,39.9a4.124,4.124,0,0,0,2.244-.625A4.287,4.287,0,0,0,179.2,37.54a5.486,5.486,0,0,0,.561-2.516V26.273h3.109Z" transform="translate(-124.212 -19.367)" fill="#fff"/>
    <path id="Path_107" data-name="Path 107" d="M235.45,25.554h3.109v2.4a5,5,0,0,1,2.1-1.939,6.562,6.562,0,0,1,3.061-.721,7.628,7.628,0,0,1,4.1,1.074,6.988,6.988,0,0,1,2.644,2.965,9.751,9.751,0,0,1,.914,4.3,9.479,9.479,0,0,1-.946,4.3,7.126,7.126,0,0,1-2.708,2.965,7.851,7.851,0,0,1-4.167,1.074,6.475,6.475,0,0,1-2.965-.689,4.764,4.764,0,0,1-2.035-1.843v8.815H235.45Zm10.434,13a4.661,4.661,0,0,0,1.731-1.971,6.648,6.648,0,0,0,.625-2.949,5.96,5.96,0,0,0-1.346-4.071,4.571,4.571,0,0,0-3.622-1.539,4.859,4.859,0,0,0-2.6.689,4.629,4.629,0,0,0-1.747,1.972,6.651,6.651,0,0,0-.625,2.949,5.914,5.914,0,0,0,1.362,4.071,4.58,4.58,0,0,0,3.606,1.539,4.836,4.836,0,0,0,2.612-.689" transform="translate(-173.557 -18.647)" fill="#fff"/>
    <path id="Path_108" data-name="Path 108" d="M305.146,7.006v5.065h4.776v2.693h-4.776v8.077a2.8,2.8,0,0,0,.657,1.988,2.394,2.394,0,0,0,1.843.705h2.276v2.693h-2.5a6.037,6.037,0,0,1-2.853-.641,4.476,4.476,0,0,1-1.875-1.827,5.732,5.732,0,0,1-.657-2.821V14.763h-3.3V12.071h3.3V7.006Z" transform="translate(-220.207 -5.164)" fill="#fff"/>
    <path id="Path_109" data-name="Path 109" d="M349.529,40.812a7.944,7.944,0,0,1-2.837-3.077,8.894,8.894,0,0,1-1.01-4.2,9.287,9.287,0,0,1,.93-4.183,7.151,7.151,0,0,1,2.693-2.965,7.767,7.767,0,0,1,4.167-1.09,7.968,7.968,0,0,1,4.135,1.026,6.769,6.769,0,0,1,2.628,2.773,8.331,8.331,0,0,1,.9,3.862q-.032.61-.064,1.218H347.477V31.9h10.514a4.292,4.292,0,0,0-1.33-3,4.527,4.527,0,0,0-3.189-1.106,4.789,4.789,0,0,0-2.548.657,4.247,4.247,0,0,0-1.651,1.923A7.529,7.529,0,0,0,348.7,33.5a6.779,6.779,0,0,0,.641,3.013,4.941,4.941,0,0,0,1.795,2.052,4.83,4.83,0,0,0,2.661.737,5.159,5.159,0,0,0,2.885-.737,3.458,3.458,0,0,0,1.475-2.116h3.109a6.342,6.342,0,0,1-1.3,2.9,6.5,6.5,0,0,1-2.6,1.939,9.07,9.07,0,0,1-3.574.673,7.812,7.812,0,0,1-4.263-1.154" transform="translate(-254.813 -18.647)" fill="#fff"/>
    <path id="Path_110" data-name="Path 110" d="M417.365,30.6a9.465,9.465,0,0,0-.9,4.52v7.309h-3.109V26.273h3.109v3.109a4.014,4.014,0,0,1,4.3-3.109h1.955v2.693h-2.34a3.159,3.159,0,0,0-3.013,1.635" transform="translate(-304.699 -19.367)" fill="#fff"/>
    <path id="Path_111" data-name="Path 111" d="M474.137,40.861a7.716,7.716,0,0,1-2.837-3.045,9.068,9.068,0,0,1-1.026-4.311,9.221,9.221,0,0,1,.962-4.3,7.027,7.027,0,0,1,2.693-2.885A7.651,7.651,0,0,1,477.9,25.3a7.861,7.861,0,0,1,3.863.93,6.517,6.517,0,0,1,2.612,2.628,8.019,8.019,0,0,1,.929,3.911q-.032.513-.064,1.058H471.428V31.966h11.764a5.042,5.042,0,0,0-1.57-3.526,5.317,5.317,0,0,0-3.719-1.282,5.513,5.513,0,0,0-2.949.769,5.121,5.121,0,0,0-1.939,2.2,7.7,7.7,0,0,0-.689,3.382,7.294,7.294,0,0,0,.769,3.366,6,6,0,0,0,2.116,2.372,5.4,5.4,0,0,0,2.981.865,5.965,5.965,0,0,0,3.446-.914,4.266,4.266,0,0,0,1.747-2.58H485.5a5.92,5.92,0,0,1-1.234,2.821,6.34,6.34,0,0,1-2.532,1.875,9.033,9.033,0,0,1-3.542.657,7.623,7.623,0,0,1-4.055-1.106" transform="translate(-346.653 -18.649)" fill="#fff"/>
    <path id="Path_112" data-name="Path 112" d="M538.56,25.555h2.02V28.92a4.992,4.992,0,0,1,2.035-2.709,6.192,6.192,0,0,1,3.414-.914,6.1,6.1,0,0,1,3.173.818,5.4,5.4,0,0,1,2.116,2.308,7.756,7.756,0,0,1,.737,3.478V41.71h-2.02V32.158a5.4,5.4,0,0,0-1.17-3.638,3.914,3.914,0,0,0-3.126-1.362,4.86,4.86,0,0,0-2.66.753,5.07,5.07,0,0,0-1.843,2.083,6.75,6.75,0,0,0-.657,3.029V41.71h-2.02Z" transform="translate(-396.989 -18.648)" fill="#fff"/>
    <path id="Path_113" data-name="Path 113" d="M603.391,40.861a7.717,7.717,0,0,1-2.837-3.045,9.07,9.07,0,0,1-1.026-4.311,9.221,9.221,0,0,1,.962-4.3,7.028,7.028,0,0,1,2.693-2.885,7.651,7.651,0,0,1,3.975-1.026,7.861,7.861,0,0,1,3.863.93,6.517,6.517,0,0,1,2.612,2.628,8.019,8.019,0,0,1,.929,3.911q-.032.513-.064,1.058H600.682V31.966h11.764a5.043,5.043,0,0,0-1.57-3.526,5.318,5.318,0,0,0-3.719-1.282,5.513,5.513,0,0,0-2.949.769,5.121,5.121,0,0,0-1.939,2.2,7.7,7.7,0,0,0-.689,3.382,7.293,7.293,0,0,0,.769,3.366,6,6,0,0,0,2.116,2.372,5.4,5.4,0,0,0,2.981.865,5.965,5.965,0,0,0,3.446-.914,4.266,4.266,0,0,0,1.747-2.58h2.116a5.92,5.92,0,0,1-1.234,2.821,6.341,6.341,0,0,1-2.532,1.875,9.032,9.032,0,0,1-3.542.657,7.623,7.623,0,0,1-4.055-1.106" transform="translate(-441.931 -18.649)" fill="#fff"/>
    <path id="Path_114" data-name="Path 114" d="M673.266,30.1a12.233,12.233,0,0,0-.993,5.433v6.892h-2.02V26.274h2.02V29.7a4.761,4.761,0,0,1,1.57-2.581,4.621,4.621,0,0,1,2.917-.849h2.116v1.859H676.76a3.577,3.577,0,0,0-3.494,1.972" transform="translate(-494.064 -19.367)" fill="#fff"/>
    <path id="Path_115" data-name="Path 115" d="M710.137,46.391h7.469a3.745,3.745,0,0,0,2.8-1.138,3.991,3.991,0,0,0,1.106-2.9V39.307A4.1,4.1,0,0,1,719.4,41.23a8.121,8.121,0,0,1-3.494.737,7.861,7.861,0,0,1-4.263-1.106,7.12,7.12,0,0,1-2.677-3,10.254,10.254,0,0,1,0-8.463,7.122,7.122,0,0,1,2.677-3,7.861,7.861,0,0,1,4.263-1.106,7.108,7.108,0,0,1,3.27.8,5.7,5.7,0,0,1,2.34,2.051v-2.6h2.019v16.8a6.133,6.133,0,0,1-.753,3.045,5.335,5.335,0,0,1-2.116,2.1,6.224,6.224,0,0,1-3.061.753h-7.469ZM719,39.307a5.376,5.376,0,0,0,2.019-2.276,7.64,7.64,0,0,0,.721-3.4,6.825,6.825,0,0,0-1.571-4.712,5.347,5.347,0,0,0-4.2-1.763,5.653,5.653,0,0,0-3.029.8,5.382,5.382,0,0,0-2.019,2.276,7.64,7.64,0,0,0-.721,3.4,6.822,6.822,0,0,0,1.571,4.712,5.345,5.345,0,0,0,4.2,1.763,5.648,5.648,0,0,0,3.029-.8" transform="translate(-521.928 -18.649)" fill="#fff"/>
    <path id="Path_116" data-name="Path 116" d="M783.527,42.814l-6.09-16.54h2.116l4.936,13.495,4.936-13.495h2.148l-5.353,14.617L783.5,48.968H781.54Z" transform="translate(-573.073 -19.367)" fill="#fff"/>
  </g>
</svg>
