<svg xmlns="http://www.w3.org/2000/svg" xmlns:xlink="http://www.w3.org/1999/xlink" width="202.251" height="28.715" viewBox="0 0 202.251 28.715">
  <defs>
    <clipPath id="clip-path">
      <rect id="Rectangle_1" data-name="Rectangle 1" width="202.251" height="28.715" fill="none"/>
    </clipPath>
  </defs>
  <g id="Group_1" data-name="Group 1" clip-path="url(#clip-path)">
    <path id="Path_1" data-name="Path 1" d="M42.323,46.716l-9.245,9.245a5.113,5.113,0,0,1-7.231-7.232l9.244-9.245a5.114,5.114,0,1,1,7.232,7.232" transform="translate(-18.424 -28.744)" fill="#8de85b"/>
    <path id="Path_2" data-name="Path 2" d="M17.972,8.729,8.729,17.972A5.114,5.114,0,0,1,1.5,10.741L10.74,1.5a5.114,5.114,0,1,1,7.232,7.232" transform="translate(0 0)" fill="#825bff"/>
    <path id="Path_3" data-name="Path 3" d="M8.729,39.484a5.114,5.114,0,1,1-7.232,0,5.114,5.114,0,0,1,7.232,0" transform="translate(0 -28.744)" fill="#8de85b"/>
    <path id="Path_4" data-name="Path 4" d="M71.072,39.484a5.114,5.114,0,1,1-7.232,0,5.114,5.114,0,0,1,7.232,0" transform="translate(-47.174 -28.744)" fill="#825bff"/>
    <path id="Path_5" data-name="Path 5" d="M129.852,25.407h1.157a1.769,1.769,0,0,0,1.469-.653A2.944,2.944,0,0,0,133,22.885V6.8h2.878V23.063a4.866,4.866,0,0,1-1.187,3.516,4.481,4.481,0,0,1-3.383,1.231h-1.454Zm6.172-21.244h-3.2V.543h3.2Z" transform="translate(-98.256 -0.411)"/>
    <path id="Path_6" data-name="Path 6" d="M181.8,41.227H178.92V38.586a4.388,4.388,0,0,1-1.869,2.136,5.8,5.8,0,0,1-2.967.742,5.568,5.568,0,0,1-2.923-.757A5.16,5.16,0,0,1,169.2,38.6a6.726,6.726,0,0,1-.7-3.13v-9.2h2.878v8.634a4.2,4.2,0,0,0,.964,2.878,3.212,3.212,0,0,0,2.537,1.1,3.818,3.818,0,0,0,2.077-.579,3.969,3.969,0,0,0,1.439-1.6,5.08,5.08,0,0,0,.519-2.329v-8.1H181.8Z" transform="translate(-127.505 -19.88)"/>
    <path id="Path_7" data-name="Path 7" d="M235.45,25.534h2.878V27.76a4.63,4.63,0,0,1,1.943-1.795A6.074,6.074,0,0,1,243.1,25.3a7.059,7.059,0,0,1,3.8.994,6.465,6.465,0,0,1,2.448,2.744,9.029,9.029,0,0,1,.846,3.976,8.774,8.774,0,0,1-.875,3.976,6.6,6.6,0,0,1-2.507,2.744,7.268,7.268,0,0,1-3.857.994,5.993,5.993,0,0,1-2.744-.638,4.409,4.409,0,0,1-1.884-1.706v8.159H235.45Zm9.658,12.031a4.313,4.313,0,0,0,1.6-1.825,6.153,6.153,0,0,0,.578-2.73,5.517,5.517,0,0,0-1.246-3.768,4.231,4.231,0,0,0-3.353-1.424,4.5,4.5,0,0,0-2.4.638,4.285,4.285,0,0,0-1.617,1.825,6.156,6.156,0,0,0-.579,2.73,5.474,5.474,0,0,0,1.261,3.768,4.24,4.24,0,0,0,3.338,1.424,4.476,4.476,0,0,0,2.418-.638" transform="translate(-178.16 -19.142)"/>
    <path id="Path_8" data-name="Path 8" d="M304.67,7.006v4.688h4.421v2.492H304.67v7.477a2.6,2.6,0,0,0,.608,1.84,2.215,2.215,0,0,0,1.706.653h2.107v2.493h-2.314a5.589,5.589,0,0,1-2.641-.593,4.143,4.143,0,0,1-1.736-1.691,5.305,5.305,0,0,1-.608-2.611V14.186h-3.056V11.694h3.056V7.006Z" transform="translate(-226.048 -5.301)"/>
    <path id="Path_9" data-name="Path 9" d="M349.242,39.658a7.353,7.353,0,0,1-2.626-2.849,8.232,8.232,0,0,1-.935-3.887,8.6,8.6,0,0,1,.86-3.872,6.617,6.617,0,0,1,2.492-2.744,7.189,7.189,0,0,1,3.857-1.009,7.375,7.375,0,0,1,3.827.95,6.266,6.266,0,0,1,2.433,2.567,7.711,7.711,0,0,1,.831,3.575q-.03.564-.06,1.128h-12.58V31.409h9.732a3.973,3.973,0,0,0-1.231-2.774,4.19,4.19,0,0,0-2.952-1.024,4.433,4.433,0,0,0-2.359.608A3.931,3.931,0,0,0,349.005,30a6.968,6.968,0,0,0-.534,2.893,6.275,6.275,0,0,0,.593,2.789,4.573,4.573,0,0,0,1.661,1.9,4.471,4.471,0,0,0,2.463.683,4.775,4.775,0,0,0,2.67-.683,3.2,3.2,0,0,0,1.365-1.958H360.1a5.871,5.871,0,0,1-1.2,2.685,6.013,6.013,0,0,1-2.4,1.8,8.4,8.4,0,0,1-3.308.623,7.231,7.231,0,0,1-3.946-1.068" transform="translate(-261.571 -19.142)"/>
    <path id="Path_10" data-name="Path 10" d="M417.066,30.279a8.762,8.762,0,0,0-.831,4.183v6.765h-2.878V26.273h2.878v2.878a3.715,3.715,0,0,1,3.976-2.878h1.81v2.492h-2.166a2.924,2.924,0,0,0-2.789,1.513" transform="translate(-312.779 -19.88)"/>
    <path id="Path_11" data-name="Path 11" d="M473.849,39.7a7.143,7.143,0,0,1-2.626-2.819,8.4,8.4,0,0,1-.949-3.99,8.535,8.535,0,0,1,.89-3.976,6.505,6.505,0,0,1,2.492-2.67,7.082,7.082,0,0,1,3.679-.949,7.276,7.276,0,0,1,3.575.86,6.032,6.032,0,0,1,2.418,2.433,7.423,7.423,0,0,1,.86,3.62q-.03.475-.059.979H471.342V31.47h10.889a4.668,4.668,0,0,0-1.454-3.264,4.921,4.921,0,0,0-3.442-1.187,5.1,5.1,0,0,0-2.73.712,4.741,4.741,0,0,0-1.8,2.032,7.127,7.127,0,0,0-.638,3.13,6.752,6.752,0,0,0,.712,3.115,5.551,5.551,0,0,0,1.958,2.2,5,5,0,0,0,2.759.8,5.521,5.521,0,0,0,3.189-.846,3.948,3.948,0,0,0,1.617-2.388h1.958a5.479,5.479,0,0,1-1.143,2.611,5.868,5.868,0,0,1-2.344,1.736,8.361,8.361,0,0,1-3.279.608,7.057,7.057,0,0,1-3.753-1.024" transform="translate(-355.847 -19.143)"/>
    <path id="Path_12" data-name="Path 12" d="M538.56,25.535h1.869v3.115a4.62,4.62,0,0,1,1.884-2.507,5.731,5.731,0,0,1,3.16-.846,5.649,5.649,0,0,1,2.937.757,5,5,0,0,1,1.958,2.136,7.179,7.179,0,0,1,.683,3.219v9.079h-1.869V31.648A4.994,4.994,0,0,0,548.1,28.28a3.623,3.623,0,0,0-2.893-1.261,4.5,4.5,0,0,0-2.463.7,4.694,4.694,0,0,0-1.706,1.929,6.247,6.247,0,0,0-.608,2.8v8.041H538.56Z" transform="translate(-407.518 -19.142)"/>
    <path id="Path_13" data-name="Path 13" d="M603.1,39.7a7.143,7.143,0,0,1-2.626-2.819,8.394,8.394,0,0,1-.949-3.99,8.535,8.535,0,0,1,.89-3.976,6.5,6.5,0,0,1,2.492-2.67,7.082,7.082,0,0,1,3.679-.949,7.276,7.276,0,0,1,3.575.86,6.032,6.032,0,0,1,2.418,2.433,7.422,7.422,0,0,1,.86,3.62q-.03.475-.059.979H600.6V31.47h10.889a4.668,4.668,0,0,0-1.454-3.264,4.922,4.922,0,0,0-3.442-1.187,5.1,5.1,0,0,0-2.73.712,4.74,4.74,0,0,0-1.8,2.032,7.127,7.127,0,0,0-.638,3.13,6.751,6.751,0,0,0,.712,3.115,5.551,5.551,0,0,0,1.958,2.2,5,5,0,0,0,2.759.8,5.522,5.522,0,0,0,3.189-.846,3.949,3.949,0,0,0,1.617-2.388h1.958a5.479,5.479,0,0,1-1.143,2.611,5.869,5.869,0,0,1-2.344,1.736,8.361,8.361,0,0,1-3.279.608A7.056,7.056,0,0,1,603.1,39.7" transform="translate(-453.651 -19.143)"/>
    <path id="Path_14" data-name="Path 14" d="M673.043,29.82a11.326,11.326,0,0,0-.919,5.029v6.379h-1.869V26.274h1.869v3.175a4.407,4.407,0,0,1,1.454-2.389,4.277,4.277,0,0,1,2.7-.786h1.958v1.721h-1.958a3.311,3.311,0,0,0-3.234,1.825" transform="translate(-507.168 -19.881)"/>
    <path id="Path_15" data-name="Path 15" d="M709.983,44.822H716.9a3.466,3.466,0,0,0,2.6-1.053,3.694,3.694,0,0,0,1.024-2.685V38.265a3.8,3.8,0,0,1-1.958,1.78,7.517,7.517,0,0,1-3.234.683,7.276,7.276,0,0,1-3.946-1.024A6.591,6.591,0,0,1,708.9,36.93a9.491,9.491,0,0,1,0-7.833,6.592,6.592,0,0,1,2.477-2.774,7.276,7.276,0,0,1,3.946-1.024,6.579,6.579,0,0,1,3.027.742,5.272,5.272,0,0,1,2.166,1.9v-2.4h1.869V41.084a5.677,5.677,0,0,1-.7,2.819,4.938,4.938,0,0,1-1.958,1.943,5.762,5.762,0,0,1-2.834.7h-6.913Zm8.2-6.557a4.976,4.976,0,0,0,1.869-2.107,7.071,7.071,0,0,0,.668-3.145,6.317,6.317,0,0,0-1.454-4.362,4.949,4.949,0,0,0-3.887-1.632,5.233,5.233,0,0,0-2.8.742,4.982,4.982,0,0,0-1.869,2.106,7.071,7.071,0,0,0-.668,3.145,6.315,6.315,0,0,0,1.454,4.362,4.948,4.948,0,0,0,3.887,1.632,5.228,5.228,0,0,0,2.8-.742" transform="translate(-535.77 -19.143)"/>
    <path id="Path_16" data-name="Path 16" d="M783.074,41.584l-5.637-15.31H779.4l4.569,12.491,4.569-12.491h1.988L785.567,39.8l-2.522,7.477h-1.81Z" transform="translate(-588.271 -19.881)"/>
  </g>
</svg>
