<svg id="Group_86" data-name="Group 86" xmlns="http://www.w3.org/2000/svg" xmlns:xlink="http://www.w3.org/1999/xlink" width="78.083" height="78.083" viewBox="0 0 78.083 78.083">
  <defs>
    <clipPath id="clip-path">
      <rect id="Rectangle_104" data-name="Rectangle 104" width="78.083" height="78.083" fill="#fff"/>
    </clipPath>
  </defs>
  <g id="Group_85" data-name="Group 85" clip-path="url(#clip-path)">
    <path id="Path_131" data-name="Path 131" d="M17.939,90.311a2.6,2.6,0,1,1-2.6,2.6,2.6,2.6,0,0,1,2.6-2.6" transform="translate(-3.623 -21.338)" fill="#fff"/>
    <path id="Path_132" data-name="Path 132" d="M82.69,90.311a2.6,2.6,0,1,1-2.6,2.6,2.6,2.6,0,0,1,2.6-2.6" transform="translate(-18.922 -21.338)" fill="#fff"/>
    <path id="Path_133" data-name="Path 133" d="M76.781,59.863H71.576V13.014a9.119,9.119,0,0,0-9.11-9.11H52.055V2.6a2.61,2.61,0,0,0-2.6-2.6H28.631a2.61,2.61,0,0,0-2.6,2.6V3.9H15.617a9.119,9.119,0,0,0-9.11,9.11V59.863H1.3a1.3,1.3,0,0,0-1.3,1.3V66.37a1.3,1.3,0,0,0,1.3,1.3H9.149a6.407,6.407,0,0,0-1.34,3.9,6.507,6.507,0,0,0,13.014,0,6.407,6.407,0,0,0-1.34-3.9H58.6a6.412,6.412,0,0,0-1.34,3.9,6.507,6.507,0,0,0,13.014,0,6.407,6.407,0,0,0-1.34-3.9h7.847a1.3,1.3,0,0,0,1.3-1.3V61.165a1.3,1.3,0,0,0-1.3-1.3M28.631,2.6H49.453V7.808H28.631ZM9.11,13.014a6.506,6.506,0,0,1,6.507-6.507H26.028v1.3a2.61,2.61,0,0,0,2.6,2.6H49.452a2.61,2.61,0,0,0,2.6-2.6v-1.3H62.466a6.506,6.506,0,0,1,6.507,6.507V59.863H62.466V29.932a1.3,1.3,0,0,0-1.3-1.3H48.151v-3.9a3.915,3.915,0,0,0-3.9-3.9H33.836a3.915,3.915,0,0,0-3.9,3.9v3.9H16.918a1.3,1.3,0,0,0-1.3,1.3V59.863H9.11ZM53.474,59.863H24.609a7.8,7.8,0,0,0-6.389-6.389V37.623a7.8,7.8,0,0,0,6.389-6.389h2.668l.04,6.507H26.028a1.3,1.3,0,0,0-1.3,1.3v3.9a1.3,1.3,0,0,0,1.3,1.3h1.3v1.3h2.6v-1.3h1.3a1.3,1.3,0,0,0,1.3-1.3v-3.9a1.3,1.3,0,0,0-1.3-1.3H29.919l-.04-6.507H48.1l.039,6.507H46.849a1.3,1.3,0,0,0-1.3,1.3v3.9a1.3,1.3,0,0,0,1.3,1.3h1.3v1.3h2.6v-1.3h1.3a1.3,1.3,0,0,0,1.3-1.3v-3.9a1.3,1.3,0,0,0-1.3-1.3H50.741L50.7,31.233h2.772a7.8,7.8,0,0,0,6.389,6.389V53.474a7.8,7.8,0,0,0-6.389,6.389m6.389-3.722v3.722H56.142a5.227,5.227,0,0,1,3.722-3.722M21.941,59.863H18.219V56.142a5.227,5.227,0,0,1,3.722,3.722M18.219,34.955V31.233h3.722a5.228,5.228,0,0,1-3.722,3.722m9.11,5.387h2.6v1.3h-2.6Zm5.206-11.712v-3.9a1.3,1.3,0,0,1,1.3-1.3h10.41a1.3,1.3,0,0,1,1.3,1.3v3.9ZM48.151,40.342h2.6v1.3h-2.6Zm7.991-9.109h3.722v3.722a5.228,5.228,0,0,1-3.722-3.722M14.315,75.48a3.9,3.9,0,1,1,3.9-3.9,3.9,3.9,0,0,1-3.9,3.9m49.452,0a3.9,3.9,0,1,1,3.9-3.9,3.9,3.9,0,0,1-3.9,3.9M75.48,65.069H2.6v-2.6H75.48Z" fill="#fff"/>
  </g>
</svg>
