<svg id="Group_84" data-name="Group 84" xmlns="http://www.w3.org/2000/svg" xmlns:xlink="http://www.w3.org/1999/xlink" width="69.227" height="77.205" viewBox="0 0 69.227 77.205">
  <defs>
    <clipPath id="clip-path">
      <rect id="Rectangle_103" data-name="Rectangle 103" width="69.227" height="77.204" fill="#fff"/>
    </clipPath>
  </defs>
  <g id="Group_83" data-name="Group 83" transform="translate(0 0)" clip-path="url(#clip-path)">
    <path id="Path_130" data-name="Path 130" d="M48.639,74.631V57.9a1.287,1.287,0,0,0-1.287-1.287H21.874A1.286,1.286,0,0,0,20.588,57.9V74.631H12.855A6.035,6.035,0,0,1,6.819,68.6V43.235a8.977,8.977,0,0,1-2.573-1.03v27.4a7.6,7.6,0,0,0,7.6,7.6H57.478a7.63,7.63,0,0,0,7.63-7.63V42.205a15.375,15.375,0,0,1-2.573,1.03V68.9A5.733,5.733,0,0,1,56.8,74.631ZM23.161,59.19H46.193V74.631H23.161ZM68.969,12.353,64.079,2.059A3.522,3.522,0,0,0,60.862,0H8.235A3.392,3.392,0,0,0,5.018,2.059L.128,12.353A.777.777,0,0,0,0,12.867V31.139a9.794,9.794,0,0,0,9.264,9.908h.257a9.226,9.226,0,0,0,6.691-2.7,12.992,12.992,0,0,0,1.673-2.059,9.727,9.727,0,0,0,16.727,0,9.727,9.727,0,0,0,16.728,0,8.407,8.407,0,0,0,1.673,2.059,9.5,9.5,0,0,0,6.948,2.7,9.8,9.8,0,0,0,9.265-9.908V12.867c-.129-.128-.129-.386-.257-.515M7.334,3.217a.968.968,0,0,1,.9-.643H60.862a.968.968,0,0,1,.9.643l3.989,8.493H3.345ZM59.7,38.474a7.528,7.528,0,0,1-5.147-1.93,6.716,6.716,0,0,1-2.187-5.018,1.287,1.287,0,1,0-2.574,0A7.057,7.057,0,0,1,42.719,38.6,6.875,6.875,0,0,1,35.9,31.4a1.287,1.287,0,1,0-2.574,0,7.056,7.056,0,0,1-7.077,7.077A6.977,6.977,0,0,1,19.172,31.4a1.287,1.287,0,1,0-2.573,0,6.717,6.717,0,0,1-2.187,5.018,6.974,6.974,0,0,1-5.148,1.931A7.328,7.328,0,0,1,2.445,31.01V14.154H66.4V31.139A7.039,7.039,0,0,1,59.7,38.474" transform="translate(0 0)" fill="#fff"/>
  </g>
</svg>
